# xmcd
#
# Track frame offsets: 
#        150
#        25634
#        42304
#        62027
#        79054
#        104308
#        121055
#        142827
#        165331
#        180231
#
# Disc length: 2681 seconds
#
# Revision: 1
# Processed by: cddbd v1.5.2PL0 Copyright (c) Steve Scherf et al.
# Submitted via: ExactAudioCopy v0.99pb5
#
DISCID=6c0a770a
DTITLE=Александр Маршал - Белый Пепел
DYEAR=2001
DGENRE=Acoustic, Soft Rock, Pop
TTITLE0=Белый пепел
TTITLE1=Наши души
TTITLE2=Вот и я
TTITLE3=Начинаю сначала
TTITLE4=Кто мы
TTITLE5=Обещай мне
TTITLE6=Невеста
TTITLE7=Мне скажет ветер
TTITLE8=Кому ты нужен
TTITLE9=Дай руку мне
EXTD=
EXTT0=
EXTT1=
EXTT2=
EXTT3=
EXTT4=
EXTT5=
EXTT6=
EXTT7=
EXTT8=
EXTT9=
PLAYORDER=
